# AST/ASF file generated using VICON BodyLanguage
# -----------------------------------------------
:version 1.10
:name VICON
:units
  mass 1.0
  length 0.45
  angle deg
:documentation
   .ast/.asf automatically generated from VICON data using
   VICON BodyBuilder and BodyLanguage model FoxedUp or BRILLIANT.MOD
:root
   order TX TY TZ RX RY RZ
   axis XYZ
   position 0 0 0  
   orientation 0 0 0 
:bonedata
  begin
     id 1 
     name lhipjoint
     direction 0.78388 -0.462562 0.414208 
     length 3.01181 
     axis 0 0 0  XYZ
  end
  begin
     id 2 
     name lfemur
     direction 0.34202 -0.939693 0  
     length 6.04673  
     axis 0 0 20  XYZ
    dof rx ry rz
    limits (-160.0 20.0)
           (-70.0 70.0)
           (-60.0 70.0)
  end
  begin
     id 3 
     name ltibia
     direction 0.34202 -0.939693 0   
     length 7.211   
     axis 0 0 20   XYZ
    dof rx
    limits (-10.0 170.0)
  end
  begin
     id 4 
     name lfoot
     direction 0.121887 -0.334882 0.934344   
     length 2.13567   
     axis -90 7.62852e-016 20   XYZ
    dof rx rz
    limits (-45.0 90.0)
           (-70.0 20.0)
  end
  begin
     id 5 
     name ltoes
     direction 1.53555e-011 -4.2179e-011 1   
     length 1.05957   
     axis -90 7.62852e-016 20   XYZ
    dof rx
    limits (-90.0 20.0)
  end
  begin
     id 6 
     name rhipjoint
     direction -0.769387 -0.475875 0.426129   
     length 2.92756  
     axis 0 0 0  XYZ 
  end
  begin
     id 7 
     name rfemur
     direction -0.34202 -0.939693 0   
     length 6.35468   
     axis 0 0 -20   XYZ
    dof rx ry rz
    limits (-160.0 20.0)
           (-70.0 70.0)
           (-70.0 60.0)
  end
  begin
     id 8 
     name rtibia
     direction -0.34202 -0.939693 0   
     length 7.37886   
     axis 0 0 -20   XYZ
    dof rx
    limits (-10.0 170.0)
 end
 begin
     id 9 
     name rfoot
     direction -0.101763 -0.279592 0.954711   
     length 2.21478  
     axis -90 -7.62852e-016 -20   XYZ
    dof rx rz
    limits (-45.0 90.0)
           (-20.0 70.0)
  end
  begin
     id 10 
     name rtoes
     direction -1.53494e-011 -4.21851e-011 1   
     length 1.10506   
     axis -90 -7.62852e-016 -20   XYZ
    dof rx
    limits (-90.0 20.0)
  end
  begin
     id 11 
     name lowerback
     direction 0.00747405 0.999267 0.0375481   
     length 2.13259   
     axis 0 0 0   XYZ
    dof rx ry rz
    limits (-20.0 45.0)
           (-30.0 30.0)
           (-30.0 30.0)
  end
  begin
     id 12 
     name upperback
     direction 0.00661626 0.996177 0.0871029   
     length 2.10528   
     axis 0 0 0   XYZ
    dof rx ry rz
    limits (-20.0 45.0)
           (-30.0 30.0)
           (-30.0 30.0)
  end
  begin
     id 13 
     name thorax
     direction 0.00320659 0.997679 0.0680167   
     length 2.11338   
     axis 0 0 0   XYZ
    dof rx ry rz
    limits (-20.0 45.0)
           (-30.0 30.0)
           (-30.0 30.0)
  end
  begin
     id 14 
     name lowerneck
     direction 0.0374841 0.973033 0.227602   
     length 1.42765   
     axis 0 0 0   XYZ
    dof rx ry rz
    limits (-20.0 45.0)
           (-30.0 30.0)
           (-30.0 30.0)
  end
  begin
     id 15 
     name upperneck
     direction 0.00481585 0.989155 -0.146795   
     length 1.47593   
     axis 0 0 0   XYZ
    dof rx ry rz
    limits (-20.0 45.0)
           (-30.0 30.0)
           (-30.0 30.0)
  end
  begin
     id 16
     name head
     direction -0.00292522 0.997206 -0.0746423  
     length 1.48116  
     axis 0 0 0   XYZ
    dof rx ry rz
    limits (-20.0 45.0)
           (-30.0 30.0)
           (-30.0 30.0)
  end
  begin
     id 17 
     name lclavicle
     direction 0.951444 0.305606 0.0368784  
     length 3.01855  
     axis 0 0 0   XYZ
    dof ry rz
    limits (-20.0 10.0)
           (0.0 20.0)
  end
  begin
     id 18 
     name lhumerus
     direction 1 -4.48977e-011 2.61664e-027   
     length 5.52731   
     axis 180 -30 -90   XYZ
    dof rx ry rz
    limits (-60.0 90.0)
           (-90.0 90.0)
           (-90.0 90.0)
  end
  begin
     id 19
     name lradius
     direction 1 -4.48944e-011 8.22157e-027   
     length 3.11059   
     axis 180 -30 -90   XYZ
    dof rx
    limits (-10.0 170.0)
  end
  begin
     id 20
     name lwrist
     direction 1 -4.48976e-011 1.5779e-026   
     length 1.5553   
     axis -1.15221e-014 90 90   XYZ
    dof ry
    limits (-180.0 0.0)
 end
  begin
     id 21 
     name lhand
     direction 1 -4.49025e-011 3.1558e-026   
     length 0.419626   
     axis -2.01367e-014 90 90   XYZ
    dof rx rz
    limits (-90.0 90.0)
           (-45.0 45.0)
  end
  begin
     id 22 
     name lfingers
     direction 1 -4.4904e-011 6.31161e-026   
     length 0.338313   
     axis -4.02734e-014 90 90   XYZ
    dof rx
    limits (0.0 90.0)
  end
  begin
     id 23
     name lthumb
     direction 0.707107 -6.35004e-011 0.707107   
     length 0.485752   
     axis -90 45 2.85299e-015   XYZ
    dof rx rz
    limits (-45.0 45.0)
           (-45.0 45.0)
  end
  begin
     id 24 
     name rclavicle
     direction -0.968876 0.223791 0.105816   
     length 3.04177  
     axis 0 0 0   XYZ 
    dof ry rz
    limits (-10.0 20.0)
           (-20.0 0.0)
  end
  begin
     id 25 
     name rhumerus
     direction -1 -4.48962e-011 -1.01384e-027  
     length 5.25396   
     axis 180 30 90   XYZ
    dof rx ry rz
    limits (-90.0 60.0)
           (-90.0 90.0)
           (-90.0 90.0)
  end
  begin
     id 26 
     name rradius
     direction -1 -4.48955e-011 8.88542e-027   
     length 3.10567   
     axis 180 30 90   XYZ
    dof rx
    limits (-10.0 170.0)
  end
  begin
     id 27 
     name rwrist
     direction -1 -4.48994e-011 1.5779e-026   
     length 1.55283   
     axis -1.15221e-014 -90 -90   XYZ
    dof ry
    limits (-180.0 0.0)
  end
  begin
     id 28
     name rhand
     direction -1 -4.48891e-011 3.1558e-026   
     length 0.498676   
     axis -2.01367e-014 -90 -90   XYZ
    dof rx rz
    limits (-90.0 90.0)
           (-45.0 45.0)
  end
  begin
     id 29
     name rfingers
     direction -1 -4.48972e-011 6.31161e-026   
     length 0.402045   
     axis -4.02734e-014 -90 -90   XYZ
    dof rx
    limits (0.0 90.0)
  end
  begin
     id 30
     name rthumb
     direction -0.707107 -6.34849e-011 0.707107   
     length 0.577259   
     axis -90 -45 -2.85299e-015   XYZ
    dof rx rz
    limits (-45.0 45.0)
           (-45.0 45.0)
  end
:hierarchy
  begin
    root lhipjoint rhipjoint lowerback
    lhipjoint lfemur
    lfemur ltibia
    ltibia lfoot
    lfoot ltoes
    rhipjoint rfemur
    rfemur rtibia
    rtibia rfoot
    rfoot rtoes
    lowerback upperback
    upperback thorax
    thorax lowerneck lclavicle rclavicle
    lowerneck upperneck
    upperneck head
    lclavicle lhumerus
    lhumerus lradius
    lradius lwrist
    lwrist lhand lthumb
    lhand lfingers
    rclavicle rhumerus
    rhumerus rradius
    rradius rwrist
    rwrist rhand rthumb
    rhand rfingers
  end

#!OML:ASF H:\Pregnant\Project 1\Capture day 1\Session 1\femalepreg.ASF
:FULLY-SPECIFIED
:DEGREES
1
root 3.59284 15.4064 27.7209 26.7241 -27.4659 -2.38439
lowerback -16.2319 -1.8147 5.44625
upperback -8.00954 -3.3953 2.77138
thorax 0.413211 -1.87477 -0.70073
lowerneck -27.5272 -2.9093 -1.56238
upperneck 27.9408 -3.87078 0.78082
head 14.219 -1.74273 -0.200571
rclavicle 1.74931e-014 1.82882e-014
rhumerus 1.51223 43.5478 -57.5408
rradius 73.0501
rwrist -49.927
rhand -28.1192 -53.6362
rfingers 7.12502
rthumb -1.50106 -83.6106
lclavicle 1.74931e-014 1.82882e-014
lhumerus -15.0585 -30.7623 59.2823
lradius 68.2077
lwrist 65.3614
lhand -33.0603 30.9638
lfingers 7.12502
lthumb -6.27239 60.8509
rfemur -41.1719 22.1573 16.3272
rtibia 40.1616
rfoot -18.0494 -6.59546
rtoes -7.8719
lfemur -53.7336 -20.1663 0.585255
ltibia 41.4282
lfoot -14.1007 -1.20956
ltoes -37.9141
2
root 3.59852 15.4015 27.7737 26.5919 -28.0465 -2.44813
lowerback -16.0995 -1.70949 5.47034
upperback -7.88248 -3.25223 2.65299
thorax 0.477663 -1.80152 -0.814643
lowerneck -27.5586 -2.96336 -1.49012
upperneck 27.7618 -3.98104 0.801979
head 14.1479 -1.77914 -0.224629
rclavicle 2.13942e-014 1.78906e-014
rhumerus 1.32086 43.4085 -57.989
rradius 72.7979
rwrist -49.7226
rhand -28.1464 -53.456
rfingers 7.12502
rthumb -1.52731 -83.4303
lclavicle 2.13942e-014 1.78906e-014
lhumerus -15.1721 -30.8843 59.2485
lradius 68.1881
lwrist 65.3736
lhand -33.0998 31.0993
lfingers 7.12502
lthumb -6.31053 60.9853
rfemur -40.8338 22.0868 16.3183
rtibia 40.0545
rfoot -18.2455 -6.06494
rtoes -8.00154
lfemur -53.3578 -21.244 1.45933
ltibia 39.6201
lfoot -14.3204 0.0590118
ltoes -39.0618
3
root 3.60375 15.4008 27.8265 26.4835 -28.628 -2.5485
lowerback -15.891 -1.66251 5.42455
upperback -7.84516 -3.1707 2.64132
thorax 0.414511 -1.76077 -0.781362
lowerneck -27.4439 -2.92648 -1.48661
upperneck 27.6011 -3.95795 0.895407
head 14.0575 -1.757 -0.179707
rclavicle -6.96243e-014 4.37326e-015
rhumerus 1.13953 43.5417 -58.3167
rradius 72.6231
rwrist -49.6126
rhand -28.1054 -53.5673
rfingers 7.12502
rthumb -1.48768 -83.5419
lclavicle -6.96243e-014 4.37326e-015
lhumerus -15.5577 -30.9119 59.3981
lradius 68.2119
lwrist 65.3339
lhand -33.3504 30.9572
lfingers 7.12502
lthumb -6.55247 60.8358
rfemur -40.4887 22.4596 16.1689
rtibia 39.8507
rfoot -18.3082 -5.89478
rtoes -7.93855
lfemur -53.0367 -22.3583 2.44721
ltibia 37.8986
lfoot -14.4286 1.26295
ltoes -40.1132
4
root 3.60111 15.4041 27.8696 26.6434 -29.5737 -2.8164
lowerback -15.8211 -1.48755 5.27072
upperback -7.748 -2.91885 2.60775
thorax 0.501417 -1.6279 -0.693126
lowerneck -27.7338 -2.90111 -1.34824
upperneck 27.5639 -4.00383 0.978145
head 14.0999 -1.74594 -0.182009
rclavicle 1.28788e-013 -1.27222e-014
rhumerus 1.12077 43.452 -58.6081
rradius 72.452
rwrist -49.5124
rhand -27.928 -53.1038
rfingers 7.12502
rthumb -1.31639 -83.0795
lclavicle 1.28788e-013 -1.27222e-014
lhumerus -15.6166 -30.9684 59.2754
lradius 68.2693
lwrist 65.3099
lhand -33.4583 31.1708
lfingers 7.12502
lthumb -6.65668 61.0462
rfemur -40.4915 23.1049 15.9622
rtibia 39.7039
rfoot -18.3232 -5.63874
rtoes -7.97394
lfemur -52.6316 -22.9311 3.3057
ltibia 36.1858
lfoot -14.4664 1.87405
ltoes -40.575
5
root 3.60613 15.3998 27.9146 26.7178 -30.1597 -2.90236
lowerback -15.7442 -1.4334 5.15394
upperback -7.71613 -2.82767 2.57011
thorax 0.50409 -1.57979 -0.651704
lowerneck -27.8351 -2.89543 -1.30297
upperneck 27.4691 -4.04119 1.06876
head 14.0816 -1.74277 -0.16089
rclavicle 2.19409e-014 -3.18055e-015
rhumerus 1.02949 43.4448 -58.9033
rradius 72.2715
rwrist -49.4141
rhand -27.7559 -52.7631
rfingers 7.12502
rthumb -1.15015 -82.7398
lclavicle 2.19409e-014 -3.18055e-015
lhumerus -15.8023 -31.0202 59.2673
lradius 68.3202
lwrist 65.271
lhand -33.5849 31.2893
lfingers 7.12502
lthumb -6.77891 61.1608
rfemur -40.4663 23.4119 15.7421
rtibia 39.6283
rfoot -18.4031 -5.45205
rtoes -8.01365
lfemur -52.5116 -23.8122 4.25471
ltibia 34.5043
lfoot -14.4164 2.5641
ltoes -41.1697
